<?xml version="1.0" encoding="UTF-8" standalone="no"?><svg xmlns="http://www.w3.org/2000/svg" xmlns:xlink="http://www.w3.org/1999/xlink" contentScriptType="application/ecmascript" contentStyleType="text/css" height="406px" preserveAspectRatio="none" style="width:478px;height:406px;background:#FFFFFF;" version="1.1" viewBox="0 0 478 406" width="478px" zoomAndPan="magnify"><defs><filter height="300%" id="f1co8q7l93i11p" width="300%" x="-1" y="-1"><feGaussianBlur result="blurOut" stdDeviation="2.0"/><feColorMatrix in="blurOut" result="blurOut2" type="matrix" values="0 0 0 0 0 0 0 0 0 0 0 0 0 0 0 0 0 0 .4 0"/><feOffset dx="4.0" dy="4.0" in="blurOut2" result="blurOut3"/><feBlend in="SourceGraphic" in2="blurOut3" mode="normal"/></filter></defs><g><!--MD5=[c0742ecf37f3ce213b15b6eab943d5f6]
cluster todo_app--><polygon fill="#FFFFFF" filter="url(#f1co8q7l93i11p)" points="16,6,88,6,95,28.4883,245,28.4883,245,392.5,16,392.5,16,6" style="stroke:#000000;stroke-width:1.5;"/><line style="stroke:#000000;stroke-width:1.5;" x1="16" x2="95" y1="28.4883" y2="28.4883"/><text fill="#000000" font-family="sans-serif" font-size="14" font-weight="bold" lengthAdjust="spacing" textLength="66" x="20" y="21.5352">todo_app</text><!--MD5=[59e5e7a3cbe4ba825db1aff9cfeb5c99]
cluster todo_app.data--><polygon fill="#FFFFFF" filter="url(#f1co8q7l93i11p)" points="273,19,379,19,386,41.4883,461,41.4883,461,399,273,399,273,19" style="stroke:#000000;stroke-width:1.5;"/><line style="stroke:#000000;stroke-width:1.5;" x1="273" x2="386" y1="41.4883" y2="41.4883"/><text fill="#000000" font-family="sans-serif" font-size="14" font-weight="bold" lengthAdjust="spacing" textLength="100" x="277" y="34.5352">todo_app.data</text><!--MD5=[4279f904f88565e32db98037da252cec]
class todo_app.app--><rect codeLine="3" fill="#FEFECE" filter="url(#f1co8q7l93i11p)" height="151.6406" id="todo_app.app" style="stroke:#A80036;stroke-width:1.5;" width="139" x="84.5" y="41"/><ellipse cx="138.25" cy="57" fill="#ADD1B2" rx="11" ry="11" style="stroke:#A80036;stroke-width:1.0;"/><path d="M140.7231,63.1431 Q140.1421,63.4419 139.5029,63.5913 Q138.8638,63.7407 138.1582,63.7407 Q135.6514,63.7407 134.3315,62.0889 Q133.0117,60.437 133.0117,57.3159 Q133.0117,54.1865 134.3315,52.5347 Q135.6514,50.8828 138.1582,50.8828 Q138.8638,50.8828 139.5112,51.0322 Q140.1587,51.1816 140.7231,51.4805 L140.7231,54.2031 Q140.0923,53.6221 139.4988,53.3523 Q138.9053,53.0825 138.2744,53.0825 Q136.9297,53.0825 136.2449,54.1492 Q135.5601,55.2158 135.5601,57.3159 Q135.5601,59.4077 136.2449,60.4744 Q136.9297,61.541 138.2744,61.541 Q138.9053,61.541 139.4988,61.2712 Q140.0923,61.0015 140.7231,60.4204 Z " fill="#000000"/><text fill="#000000" font-family="sans-serif" font-size="12" lengthAdjust="spacing" textLength="23" x="158.75" y="61.5352">app</text><line style="stroke:#A80036;stroke-width:1.5;" x1="85.5" x2="222.5" y1="73" y2="73"/><text fill="#000000" font-family="sans-serif" font-size="11" lengthAdjust="spacing" textLength="20" x="90.5" y="87.6348">app</text><line style="stroke:#A80036;stroke-width:1.5;" x1="85.5" x2="222.5" y1="93.9551" y2="93.9551"/><text fill="#000000" font-family="sans-serif" font-size="11" lengthAdjust="spacing" textLength="67" x="90.5" y="108.5898">create_app()</text><text fill="#000000" font-family="sans-serif" font-size="11" lengthAdjust="spacing" textLength="97" x="90.5" y="121.5449">ViewModel index()</text><text fill="#000000" font-family="sans-serif" font-size="11" lengthAdjust="spacing" textLength="88" x="90.5" y="134.5">add_todo_item()</text><text fill="#000000" font-family="sans-serif" font-size="11" lengthAdjust="spacing" textLength="103" x="90.5" y="147.4551">start_todo_item(id)</text><text fill="#000000" font-family="sans-serif" font-size="11" lengthAdjust="spacing" textLength="127" x="90.5" y="160.4102">complete_todo_item(id)</text><text fill="#000000" font-family="sans-serif" font-size="11" lengthAdjust="spacing" textLength="105" x="90.5" y="173.3652">reset_todo_item(id)</text><text fill="#000000" font-family="sans-serif" font-size="11" lengthAdjust="spacing" textLength="110" x="90.5" y="186.3203">delete_todo_item(id)</text><!--MD5=[a543e5e9afc1cbbe7c4efccaf4c4b9ba]
class todo_app.ViewModel--><rect codeLine="14" fill="#FEFECE" filter="url(#f1co8q7l93i11p)" height="99.8203" id="todo_app.ViewModel" style="stroke:#A80036;stroke-width:1.5;" width="94" x="32" y="276.5"/><ellipse cx="47" cy="292.5" fill="#ADD1B2" rx="11" ry="11" style="stroke:#A80036;stroke-width:1.0;"/><path d="M49.4731,298.6431 Q48.8921,298.9419 48.2529,299.0913 Q47.6138,299.2407 46.9082,299.2407 Q44.4014,299.2407 43.0815,297.5889 Q41.7617,295.937 41.7617,292.8159 Q41.7617,289.6865 43.0815,288.0347 Q44.4014,286.3828 46.9082,286.3828 Q47.6138,286.3828 48.2612,286.5322 Q48.9087,286.6816 49.4731,286.9805 L49.4731,289.7031 Q48.8423,289.1221 48.2488,288.8523 Q47.6553,288.5825 47.0244,288.5825 Q45.6797,288.5825 44.9949,289.6492 Q44.3101,290.7158 44.3101,292.8159 Q44.3101,294.9077 44.9949,295.9744 Q45.6797,297.041 47.0244,297.041 Q47.6553,297.041 48.2488,296.7712 Q48.8423,296.5015 49.4731,295.9204 Z " fill="#000000"/><text fill="#000000" font-family="sans-serif" font-size="12" lengthAdjust="spacing" textLength="62" x="61" y="297.0352">ViewModel</text><line style="stroke:#A80036;stroke-width:1.5;" x1="33" x2="125" y1="308.5" y2="308.5"/><line style="stroke:#A80036;stroke-width:1.5;" x1="33" x2="125" y1="316.5" y2="316.5"/><text fill="#000000" font-family="sans-serif" font-size="11" lengthAdjust="spacing" textLength="37" x="38" y="331.1348">items()</text><text fill="#000000" font-family="sans-serif" font-size="11" lengthAdjust="spacing" textLength="68" x="38" y="344.0898">todo_items()</text><text fill="#000000" font-family="sans-serif" font-size="11" lengthAdjust="spacing" textLength="74" x="38" y="357.0449">doing_items()</text><text fill="#000000" font-family="sans-serif" font-size="11" lengthAdjust="spacing" textLength="70" x="38" y="370">done_items()</text><!--MD5=[c23eee843e16652c163bfe0d2064dba2]
class todo_app.Config--><rect codeLine="21" fill="#FEFECE" filter="url(#f1co8q7l93i11p)" height="48" id="todo_app.Config" style="stroke:#A80036;stroke-width:1.5;" width="68" x="161" y="302.5"/><ellipse cx="176" cy="318.5" fill="#ADD1B2" rx="11" ry="11" style="stroke:#A80036;stroke-width:1.0;"/><path d="M178.4731,324.6431 Q177.8921,324.9419 177.2529,325.0913 Q176.6138,325.2407 175.9082,325.2407 Q173.4014,325.2407 172.0815,323.5889 Q170.7617,321.937 170.7617,318.8159 Q170.7617,315.6865 172.0815,314.0347 Q173.4014,312.3828 175.9082,312.3828 Q176.6138,312.3828 177.2612,312.5322 Q177.9087,312.6816 178.4731,312.9805 L178.4731,315.7031 Q177.8423,315.1221 177.2488,314.8523 Q176.6553,314.5825 176.0244,314.5825 Q174.6797,314.5825 173.9949,315.6492 Q173.3101,316.7158 173.3101,318.8159 Q173.3101,320.9077 173.9949,321.9744 Q174.6797,323.041 176.0244,323.041 Q176.6553,323.041 177.2488,322.7712 Q177.8423,322.5015 178.4731,321.9204 Z " fill="#000000"/><text fill="#000000" font-family="sans-serif" font-size="12" lengthAdjust="spacing" textLength="36" x="190" y="323.0352">Config</text><line style="stroke:#A80036;stroke-width:1.5;" x1="162" x2="228" y1="334.5" y2="334.5"/><line style="stroke:#A80036;stroke-width:1.5;" x1="162" x2="228" y1="342.5" y2="342.5"/><!--MD5=[2f1813e6ddce662c409e62151a420e76]
class todo_app.data.session_items--><rect codeLine="30" fill="#FEFECE" filter="url(#f1co8q7l93i11p)" height="125.7305" id="todo_app.data.session_items" style="stroke:#A80036;stroke-width:1.5;" width="156" x="289" y="54"/><ellipse cx="324.25" cy="70" fill="#ADD1B2" rx="11" ry="11" style="stroke:#A80036;stroke-width:1.0;"/><path d="M326.7231,76.1431 Q326.1421,76.4419 325.5029,76.5913 Q324.8638,76.7407 324.1582,76.7407 Q321.6514,76.7407 320.3315,75.0889 Q319.0117,73.437 319.0117,70.3159 Q319.0117,67.1865 320.3315,65.5347 Q321.6514,63.8828 324.1582,63.8828 Q324.8638,63.8828 325.5112,64.0322 Q326.1587,64.1816 326.7231,64.4805 L326.7231,67.2031 Q326.0923,66.6221 325.4988,66.3523 Q324.9053,66.0825 324.2744,66.0825 Q322.9297,66.0825 322.2449,67.1492 Q321.5601,68.2158 321.5601,70.3159 Q321.5601,72.4077 322.2449,73.4744 Q322.9297,74.541 324.2744,74.541 Q324.9053,74.541 325.4988,74.2712 Q326.0923,74.0015 326.7231,73.4204 Z " fill="#000000"/><text fill="#000000" font-family="sans-serif" font-size="12" lengthAdjust="spacing" textLength="79" x="342.75" y="74.5352">session_items</text><line style="stroke:#A80036;stroke-width:1.5;" x1="290" x2="444" y1="86" y2="86"/><line style="stroke:#A80036;stroke-width:1.5;" x1="290" x2="444" y1="94" y2="94"/><text fill="#000000" font-family="sans-serif" font-size="11" lengthAdjust="spacing" textLength="78" x="295" y="108.6348">Map get_lists()</text><text fill="#000000" font-family="sans-serif" font-size="11" lengthAdjust="spacing" textLength="82" x="295" y="121.5898">List get_items()</text><text fill="#000000" font-family="sans-serif" font-size="11" lengthAdjust="spacing" textLength="90" x="295" y="134.5449">Item get_item(id)</text><text fill="#000000" font-family="sans-serif" font-size="11" lengthAdjust="spacing" textLength="144" x="295" y="147.5">add_item(title, description)</text><text fill="#000000" font-family="sans-serif" font-size="11" lengthAdjust="spacing" textLength="119" x="295" y="160.4551">Item save_item(id, list)</text><text fill="#000000" font-family="sans-serif" font-size="11" lengthAdjust="spacing" textLength="79" x="295" y="173.4102">delete_item(id)</text><!--MD5=[f44d007e1874b6556aad327d3f814d2a]
class todo_app.data.Item--><rect codeLine="39" fill="#FEFECE" filter="url(#f1co8q7l93i11p)" height="112.7754" id="todo_app.data.Item" style="stroke:#A80036;stroke-width:1.5;" width="57" x="338.5" y="270"/><ellipse cx="353.5" cy="286" fill="#ADD1B2" rx="11" ry="11" style="stroke:#A80036;stroke-width:1.0;"/><path d="M355.9731,292.1431 Q355.3921,292.4419 354.7529,292.5913 Q354.1138,292.7407 353.4082,292.7407 Q350.9014,292.7407 349.5815,291.0889 Q348.2617,289.437 348.2617,286.3159 Q348.2617,283.1865 349.5815,281.5347 Q350.9014,279.8828 353.4082,279.8828 Q354.1138,279.8828 354.7612,280.0322 Q355.4087,280.1816 355.9731,280.4805 L355.9731,283.2031 Q355.3423,282.6221 354.7488,282.3523 Q354.1553,282.0825 353.5244,282.0825 Q352.1797,282.0825 351.4949,283.1492 Q350.8101,284.2158 350.8101,286.3159 Q350.8101,288.4077 351.4949,289.4744 Q352.1797,290.541 353.5244,290.541 Q354.1553,290.541 354.7488,290.2712 Q355.3423,290.0015 355.9731,289.4204 Z " fill="#000000"/><text fill="#000000" font-family="sans-serif" font-size="12" lengthAdjust="spacing" textLength="25" x="367.5" y="290.5352">Item</text><line style="stroke:#A80036;stroke-width:1.5;" x1="339.5" x2="394.5" y1="302" y2="302"/><text fill="#000000" font-family="sans-serif" font-size="11" lengthAdjust="spacing" textLength="10" x="344.5" y="316.6348">id</text><text fill="#000000" font-family="sans-serif" font-size="11" lengthAdjust="spacing" textLength="29" x="344.5" y="329.5898">name</text><text fill="#000000" font-family="sans-serif" font-size="11" lengthAdjust="spacing" textLength="25" x="344.5" y="342.5449">desc</text><text fill="#000000" font-family="sans-serif" font-size="11" lengthAdjust="spacing" textLength="29" x="344.5" y="355.5">idList</text><text fill="#000000" font-family="sans-serif" font-size="11" lengthAdjust="spacing" textLength="43" x="344.5" y="368.4551">listNane</text><line style="stroke:#A80036;stroke-width:1.5;" x1="339.5" x2="394.5" y1="374.7754" y2="374.7754"/><!--MD5=[a3a0ed7682efa5be2a1bcdb08b2dce65]
link todo_app.app to todo_app.ViewModel--><path codeLine="25" d="M126.82,193.21 C117.42,219.19 107.09,247.77 98.45,271.7 " fill="none" id="todo_app.app-to-todo_app.ViewModel" style="stroke:#A80036;stroke-width:1.0;stroke-dasharray:7.0,7.0;"/><polygon fill="#A80036" points="96.74,276.42,103.5558,269.3105,98.4361,271.7165,96.0302,266.5968,96.74,276.42" style="stroke:#A80036;stroke-width:1.0;"/><text fill="#000000" font-family="sans-serif" font-size="13" lengthAdjust="spacing" textLength="45" x="115" y="236.5684">creates</text><!--MD5=[9b23ffbd2ce7cdf18f89318683d4e119]
reverse link todo_app.app to todo_app.Config--><path codeLine="26" d="M169.85,198.2 C177.21,235.48 185.42,277.04 190.4,302.22 " fill="none" id="todo_app.app-backto-todo_app.Config" style="stroke:#A80036;stroke-width:1.0;stroke-dasharray:7.0,7.0;"/><polygon fill="#A80036" points="168.86,193.21,166.6812,202.8148,169.8296,198.1151,174.5294,201.2635,168.86,193.21" style="stroke:#A80036;stroke-width:1.0;"/><text fill="#000000" font-family="sans-serif" font-size="13" lengthAdjust="spacing" textLength="67" x="177" y="236.5684">configures</text><!--MD5=[5e4036759cfeb9b28a8f3038e3ce8b23]
link todo_app.app to todo_app.data.session_items--><path codeLine="47" d="M229.17,117 C246.89,117 265.88,117 283.93,117 " fill="none" id="todo_app.app-todo_app.data.session_items" style="stroke:#A80036;stroke-width:1.0;"/><polygon fill="#A80036" points="288.99,117,279.99,113,283.99,117,279.99,121,288.99,117" style="stroke:#A80036;stroke-width:1.0;"/><polygon fill="#A80036" points="223.74,117,232.74,121,228.74,117,232.74,113,223.74,117" style="stroke:#A80036;stroke-width:1.0;"/><text fill="#000000" font-family="sans-serif" font-size="13" lengthAdjust="spacing" textLength="29" x="241.75" y="110.5684">uses</text><!--MD5=[f4e43de05bb38f369b5b48584f5f836f]
link todo_app.data.session_items to todo_app.data.Item--><path codeLine="49" d="M367,180.26 C367,207 367,238.16 367,264.74 " fill="none" id="todo_app.data.session_items-to-todo_app.data.Item" style="stroke:#A80036;stroke-width:1.0;stroke-dasharray:7.0,7.0;"/><polygon fill="#A80036" points="367,269.99,371,260.99,367,264.99,363,260.99,367,269.99" style="stroke:#A80036;stroke-width:1.0;"/><text fill="#000000" font-family="sans-serif" font-size="13" lengthAdjust="spacing" textLength="45" x="368" y="236.5684">creates</text><!--MD5=[673a6c26841c6af152645d5176d40912]
@startuml code
allow_mixing

class todo_app.app {
    app
    create_app()
    ViewModel index()
    add_todo_item()
    start_todo_item(id)
    complete_todo_item(id)
    reset_todo_item(id)
    delete_todo_item(id)
}

class todo_app.ViewModel {
    items()
    todo_items()
    doing_items()
    done_items()
}

class todo_app.Config {
    
}

todo_app.app ..> todo_app.ViewModel :creates
todo_app.app <.. todo_app.Config :configures



class todo_app.data.session_items {
    Map get_lists()
    List get_items()
    Item get_item(id)
    add_item(title, description)
    Item save_item(id, list)
    delete_item(id)
}

class todo_app.data.Item {
    id
    name
    desc
    idList
    listNane
}

todo_app.app <- - -right- - -> todo_app.data.session_items:uses

todo_app.data.session_items ..> todo_app.data.Item:creates

@enduml

PlantUML version 1.2021.9(Sun Jul 25 11:13:56 BST 2021)
(GPL source distribution)
Java Runtime: Java(TM) SE Runtime Environment
JVM: Java HotSpot(TM) 64-Bit Server VM
Default Encoding: UTF-8
Language: en
Country: GB
--></g></svg>