<?xml version="1.0" encoding="UTF-8" standalone="no"?><svg xmlns="http://www.w3.org/2000/svg" xmlns:xlink="http://www.w3.org/1999/xlink" contentScriptType="application/ecmascript" contentStyleType="text/css" height="393px" preserveAspectRatio="none" style="width:515px;height:393px;background:#FFFFFF;" version="1.1" viewBox="0 0 515 393" width="515px" zoomAndPan="magnify"><defs><filter height="300%" id="f1dis58jenry5b" width="300%" x="-1" y="-1"><feGaussianBlur result="blurOut" stdDeviation="2.0"/><feColorMatrix in="blurOut" result="blurOut2" type="matrix" values="0 0 0 0 0 0 0 0 0 0 0 0 0 0 0 0 0 0 .4 0"/><feOffset dx="4.0" dy="4.0" in="blurOut2" result="blurOut3"/><feBlend in="SourceGraphic" in2="blurOut3" mode="normal"/></filter></defs><g><!--MD5=[c0742ecf37f3ce213b15b6eab943d5f6]
cluster todo_app--><polygon fill="#FFFFFF" filter="url(#f1dis58jenry5b)" points="16,6,88,6,95,28.4883,282,28.4883,282,379.5,16,379.5,16,6" style="stroke:#000000;stroke-width:1.5;"/><line style="stroke:#000000;stroke-width:1.5;" x1="16" x2="95" y1="28.4883" y2="28.4883"/><text fill="#000000" font-family="sans-serif" font-size="14" font-weight="bold" lengthAdjust="spacing" textLength="66" x="20" y="21.5352">todo_app</text><!--MD5=[59e5e7a3cbe4ba825db1aff9cfeb5c99]
cluster todo_app.data--><polygon fill="#FFFFFF" filter="url(#f1dis58jenry5b)" points="310,12.5,416,12.5,423,34.9883,498,34.9883,498,386,310,386,310,12.5" style="stroke:#000000;stroke-width:1.5;"/><line style="stroke:#000000;stroke-width:1.5;" x1="310" x2="423" y1="34.9883" y2="34.9883"/><text fill="#000000" font-family="sans-serif" font-size="14" font-weight="bold" lengthAdjust="spacing" textLength="100" x="314" y="28.0352">todo_app.data</text><!--MD5=[4279f904f88565e32db98037da252cec]
class todo_app.app--><rect codeLine="2" fill="#FEFECE" filter="url(#f1dis58jenry5b)" height="138.6855" id="todo_app.app" style="stroke:#A80036;stroke-width:1.5;" width="139" x="121.5" y="41"/><ellipse cx="175.25" cy="57" fill="#ADD1B2" rx="11" ry="11" style="stroke:#A80036;stroke-width:1.0;"/><path d="M177.7231,63.1431 Q177.1421,63.4419 176.5029,63.5913 Q175.8638,63.7407 175.1582,63.7407 Q172.6514,63.7407 171.3315,62.0889 Q170.0117,60.437 170.0117,57.3159 Q170.0117,54.1865 171.3315,52.5347 Q172.6514,50.8828 175.1582,50.8828 Q175.8638,50.8828 176.5112,51.0322 Q177.1587,51.1816 177.7231,51.4805 L177.7231,54.2031 Q177.0923,53.6221 176.4988,53.3523 Q175.9053,53.0825 175.2744,53.0825 Q173.9297,53.0825 173.2449,54.1492 Q172.5601,55.2158 172.5601,57.3159 Q172.5601,59.4077 173.2449,60.4744 Q173.9297,61.541 175.2744,61.541 Q175.9053,61.541 176.4988,61.2712 Q177.0923,61.0015 177.7231,60.4204 Z " fill="#000000"/><text fill="#000000" font-family="sans-serif" font-size="12" lengthAdjust="spacing" textLength="23" x="195.75" y="61.5352">app</text><line style="stroke:#A80036;stroke-width:1.5;" x1="122.5" x2="259.5" y1="73" y2="73"/><text fill="#000000" font-family="sans-serif" font-size="11" lengthAdjust="spacing" textLength="20" x="127.5" y="87.6348">app</text><line style="stroke:#A80036;stroke-width:1.5;" x1="122.5" x2="259.5" y1="93.9551" y2="93.9551"/><text fill="#000000" font-family="sans-serif" font-size="11" lengthAdjust="spacing" textLength="103" x="127.5" y="108.5898">view_model index()</text><text fill="#000000" font-family="sans-serif" font-size="11" lengthAdjust="spacing" textLength="88" x="127.5" y="121.5449">add_todo_item()</text><text fill="#000000" font-family="sans-serif" font-size="11" lengthAdjust="spacing" textLength="103" x="127.5" y="134.5">start_todo_item(id)</text><text fill="#000000" font-family="sans-serif" font-size="11" lengthAdjust="spacing" textLength="127" x="127.5" y="147.4551">complete_todo_item(id)</text><text fill="#000000" font-family="sans-serif" font-size="11" lengthAdjust="spacing" textLength="105" x="127.5" y="160.4102">reset_todo_item(id)</text><text fill="#000000" font-family="sans-serif" font-size="11" lengthAdjust="spacing" textLength="110" x="127.5" y="173.3652">delete_todo_item(id)</text><!--MD5=[17a02492c62cbe1f81753b421409a5f7]
class todo_app.view_model--><rect codeLine="12" fill="#FEFECE" filter="url(#f1dis58jenry5b)" height="99.8203" id="todo_app.view_model" style="stroke:#A80036;stroke-width:1.5;" width="99" x="32.5" y="263.5"/><ellipse cx="47.5" cy="279.5" fill="#ADD1B2" rx="11" ry="11" style="stroke:#A80036;stroke-width:1.0;"/><path d="M49.9731,285.6431 Q49.3921,285.9419 48.7529,286.0913 Q48.1138,286.2407 47.4082,286.2407 Q44.9014,286.2407 43.5815,284.5889 Q42.2617,282.937 42.2617,279.8159 Q42.2617,276.6865 43.5815,275.0347 Q44.9014,273.3828 47.4082,273.3828 Q48.1138,273.3828 48.7612,273.5322 Q49.4087,273.6816 49.9731,273.9805 L49.9731,276.7031 Q49.3423,276.1221 48.7488,275.8523 Q48.1553,275.5825 47.5244,275.5825 Q46.1797,275.5825 45.4949,276.6492 Q44.8101,277.7158 44.8101,279.8159 Q44.8101,281.9077 45.4949,282.9744 Q46.1797,284.041 47.5244,284.041 Q48.1553,284.041 48.7488,283.7712 Q49.3423,283.5015 49.9731,282.9204 Z " fill="#000000"/><text fill="#000000" font-family="sans-serif" font-size="12" lengthAdjust="spacing" textLength="67" x="61.5" y="284.0352">view_model</text><line style="stroke:#A80036;stroke-width:1.5;" x1="33.5" x2="130.5" y1="295.5" y2="295.5"/><line style="stroke:#A80036;stroke-width:1.5;" x1="33.5" x2="130.5" y1="303.5" y2="303.5"/><text fill="#000000" font-family="sans-serif" font-size="11" lengthAdjust="spacing" textLength="37" x="38.5" y="318.1348">items()</text><text fill="#000000" font-family="sans-serif" font-size="11" lengthAdjust="spacing" textLength="68" x="38.5" y="331.0898">todo_items()</text><text fill="#000000" font-family="sans-serif" font-size="11" lengthAdjust="spacing" textLength="74" x="38.5" y="344.0449">doing_items()</text><text fill="#000000" font-family="sans-serif" font-size="11" lengthAdjust="spacing" textLength="70" x="38.5" y="357">done_items()</text><!--MD5=[4739ba94b6734ee45adb9e69a8bbedd9]
class todo_app.flask_config--><rect codeLine="19" fill="#FEFECE" filter="url(#f1dis58jenry5b)" height="48" id="todo_app.flask_config" style="stroke:#A80036;stroke-width:1.5;" width="99" x="166.5" y="289.5"/><ellipse cx="181.5" cy="305.5" fill="#ADD1B2" rx="11" ry="11" style="stroke:#A80036;stroke-width:1.0;"/><path d="M183.9731,311.6431 Q183.3921,311.9419 182.7529,312.0913 Q182.1138,312.2407 181.4082,312.2407 Q178.9014,312.2407 177.5815,310.5889 Q176.2617,308.937 176.2617,305.8159 Q176.2617,302.6865 177.5815,301.0347 Q178.9014,299.3828 181.4082,299.3828 Q182.1138,299.3828 182.7612,299.5322 Q183.4087,299.6816 183.9731,299.9805 L183.9731,302.7031 Q183.3423,302.1221 182.7488,301.8523 Q182.1553,301.5825 181.5244,301.5825 Q180.1797,301.5825 179.4949,302.6492 Q178.8101,303.7158 178.8101,305.8159 Q178.8101,307.9077 179.4949,308.9744 Q180.1797,310.041 181.5244,310.041 Q182.1553,310.041 182.7488,309.7712 Q183.3423,309.5015 183.9731,308.9204 Z " fill="#000000"/><text fill="#000000" font-family="sans-serif" font-size="12" lengthAdjust="spacing" textLength="67" x="195.5" y="310.0352">flask_config</text><line style="stroke:#A80036;stroke-width:1.5;" x1="167.5" x2="264.5" y1="321.5" y2="321.5"/><line style="stroke:#A80036;stroke-width:1.5;" x1="167.5" x2="264.5" y1="329.5" y2="329.5"/><!--MD5=[2f1813e6ddce662c409e62151a420e76]
class todo_app.data.session_items--><rect codeLine="26" fill="#FEFECE" filter="url(#f1dis58jenry5b)" height="125.7305" id="todo_app.data.session_items" style="stroke:#A80036;stroke-width:1.5;" width="156" x="326" y="47.5"/><ellipse cx="361.25" cy="63.5" fill="#ADD1B2" rx="11" ry="11" style="stroke:#A80036;stroke-width:1.0;"/><path d="M363.7231,69.6431 Q363.1421,69.9419 362.5029,70.0913 Q361.8638,70.2407 361.1582,70.2407 Q358.6514,70.2407 357.3315,68.5889 Q356.0117,66.937 356.0117,63.8159 Q356.0117,60.6865 357.3315,59.0347 Q358.6514,57.3828 361.1582,57.3828 Q361.8638,57.3828 362.5112,57.5322 Q363.1587,57.6816 363.7231,57.9805 L363.7231,60.7031 Q363.0923,60.1221 362.4988,59.8523 Q361.9053,59.5825 361.2744,59.5825 Q359.9297,59.5825 359.2449,60.6492 Q358.5601,61.7158 358.5601,63.8159 Q358.5601,65.9077 359.2449,66.9744 Q359.9297,68.041 361.2744,68.041 Q361.9053,68.041 362.4988,67.7712 Q363.0923,67.5015 363.7231,66.9204 Z " fill="#000000"/><text fill="#000000" font-family="sans-serif" font-size="12" lengthAdjust="spacing" textLength="79" x="379.75" y="68.0352">session_items</text><line style="stroke:#A80036;stroke-width:1.5;" x1="327" x2="481" y1="79.5" y2="79.5"/><line style="stroke:#A80036;stroke-width:1.5;" x1="327" x2="481" y1="87.5" y2="87.5"/><text fill="#000000" font-family="sans-serif" font-size="11" lengthAdjust="spacing" textLength="78" x="332" y="102.1348">Map get_lists()</text><text fill="#000000" font-family="sans-serif" font-size="11" lengthAdjust="spacing" textLength="82" x="332" y="115.0898">List get_items()</text><text fill="#000000" font-family="sans-serif" font-size="11" lengthAdjust="spacing" textLength="90" x="332" y="128.0449">Item get_item(id)</text><text fill="#000000" font-family="sans-serif" font-size="11" lengthAdjust="spacing" textLength="144" x="332" y="141">add_item(title, description)</text><text fill="#000000" font-family="sans-serif" font-size="11" lengthAdjust="spacing" textLength="119" x="332" y="153.9551">Item save_item(id, list)</text><text fill="#000000" font-family="sans-serif" font-size="11" lengthAdjust="spacing" textLength="79" x="332" y="166.9102">delete_item(id)</text><!--MD5=[e8232cdb42d8830bb156df66adf42f79]
class todo_app.data.item--><rect codeLine="35" fill="#FEFECE" filter="url(#f1dis58jenry5b)" height="112.7754" id="todo_app.data.item" style="stroke:#A80036;stroke-width:1.5;" width="57" x="375.5" y="257"/><ellipse cx="390.5" cy="273" fill="#ADD1B2" rx="11" ry="11" style="stroke:#A80036;stroke-width:1.0;"/><path d="M392.9731,279.1431 Q392.3921,279.4419 391.7529,279.5913 Q391.1138,279.7407 390.4082,279.7407 Q387.9014,279.7407 386.5815,278.0889 Q385.2617,276.437 385.2617,273.3159 Q385.2617,270.1865 386.5815,268.5347 Q387.9014,266.8828 390.4082,266.8828 Q391.1138,266.8828 391.7612,267.0322 Q392.4087,267.1816 392.9731,267.4805 L392.9731,270.2031 Q392.3423,269.6221 391.7488,269.3523 Q391.1553,269.0825 390.5244,269.0825 Q389.1797,269.0825 388.4949,270.1492 Q387.8101,271.2158 387.8101,273.3159 Q387.8101,275.4077 388.4949,276.4744 Q389.1797,277.541 390.5244,277.541 Q391.1553,277.541 391.7488,277.2712 Q392.3423,277.0015 392.9731,276.4204 Z " fill="#000000"/><text fill="#000000" font-family="sans-serif" font-size="12" lengthAdjust="spacing" textLength="25" x="404.5" y="277.5352">item</text><line style="stroke:#A80036;stroke-width:1.5;" x1="376.5" x2="431.5" y1="289" y2="289"/><text fill="#000000" font-family="sans-serif" font-size="11" lengthAdjust="spacing" textLength="10" x="381.5" y="303.6348">id</text><text fill="#000000" font-family="sans-serif" font-size="11" lengthAdjust="spacing" textLength="29" x="381.5" y="316.5898">name</text><text fill="#000000" font-family="sans-serif" font-size="11" lengthAdjust="spacing" textLength="25" x="381.5" y="329.5449">desc</text><text fill="#000000" font-family="sans-serif" font-size="11" lengthAdjust="spacing" textLength="29" x="381.5" y="342.5">idList</text><text fill="#000000" font-family="sans-serif" font-size="11" lengthAdjust="spacing" textLength="43" x="381.5" y="355.4551">listNane</text><line style="stroke:#A80036;stroke-width:1.5;" x1="376.5" x2="431.5" y1="361.7754" y2="361.7754"/><!--MD5=[9730b533e8be83e33b6963108c2a76fc]
link todo_app.app to todo_app.view_model--><path codeLine="23" d="M153.79,180.11 C139.86,205.81 124.24,234.6 111.14,258.76 " fill="none" id="todo_app.app-to-todo_app.view_model" style="stroke:#A80036;stroke-width:1.0;stroke-dasharray:7.0,7.0;"/><polygon fill="#A80036" points="108.73,263.22,116.5362,257.2148,111.1133,258.8245,109.5035,253.4016,108.73,263.22" style="stroke:#A80036;stroke-width:1.0;"/><text fill="#000000" font-family="sans-serif" font-size="13" lengthAdjust="spacing" textLength="45" x="137" y="223.5684">creates</text><!--MD5=[8687c37394fcbca2c3dd169377e86f84]
reverse link todo_app.app to todo_app.flask_config--><path codeLine="24" d="M200.2,185.49 C204.78,222.25 209.98,264.1 213.13,289.4 " fill="none" id="todo_app.app-backto-todo_app.flask_config" style="stroke:#A80036;stroke-width:1.0;stroke-dasharray:7.0,7.0;"/><polygon fill="#A80036" points="199.53,180.11,196.6639,189.5326,200.1432,185.0723,204.6035,188.5515,199.53,180.11" style="stroke:#A80036;stroke-width:1.0;"/><text fill="#000000" font-family="sans-serif" font-size="13" lengthAdjust="spacing" textLength="67" x="205" y="223.5684">configures</text><!--MD5=[5e4036759cfeb9b28a8f3038e3ce8b23]
link todo_app.app to todo_app.data.session_items--><path codeLine="43" d="M266.17,110.5 C283.89,110.5 302.88,110.5 320.93,110.5 " fill="none" id="todo_app.app-todo_app.data.session_items" style="stroke:#A80036;stroke-width:1.0;"/><polygon fill="#A80036" points="325.99,110.5,316.99,106.5,320.99,110.5,316.99,114.5,325.99,110.5" style="stroke:#A80036;stroke-width:1.0;"/><polygon fill="#A80036" points="260.74,110.5,269.74,114.5,265.74,110.5,269.74,106.5,260.74,110.5" style="stroke:#A80036;stroke-width:1.0;"/><text fill="#000000" font-family="sans-serif" font-size="13" lengthAdjust="spacing" textLength="29" x="278.75" y="104.0684">uses</text><!--MD5=[f457593cc2907e7956b28d25c4c0d14d]
link todo_app.data.session_items to todo_app.data.item--><path codeLine="45" d="M404,173.72 C404,198.48 404,226.88 404,251.51 " fill="none" id="todo_app.data.session_items-to-todo_app.data.item" style="stroke:#A80036;stroke-width:1.0;stroke-dasharray:7.0,7.0;"/><polygon fill="#A80036" points="404,256.71,408,247.71,404,251.71,400,247.71,404,256.71" style="stroke:#A80036;stroke-width:1.0;"/><text fill="#000000" font-family="sans-serif" font-size="13" lengthAdjust="spacing" textLength="45" x="405" y="223.5684">creates</text><!--MD5=[1ec8a3b918cbb79fb1a46790d7f691e9]
@startuml code

class todo_app.app {
    app
    view_model index()
    add_todo_item()
    start_todo_item(id)
    complete_todo_item(id)
    reset_todo_item(id)
    delete_todo_item(id)
}

class todo_app.view_model {
    items()
    todo_items()
    doing_items()
    done_items()
}

class todo_app.flask_config {
    
}

todo_app.app ..> todo_app.view_model :creates
todo_app.app <.. todo_app.flask_config :configures

class todo_app.data.session_items {
    Map get_lists()
    List get_items()
    Item get_item(id)
    add_item(title, description)
    Item save_item(id, list)
    delete_item(id)
}

class todo_app.data.item {
    id
    name
    desc
    idList
    listNane
}

todo_app.app <- - -right- - -> todo_app.data.session_items:uses

todo_app.data.session_items ..> todo_app.data.item:creates

@enduml

PlantUML version 1.2021.9(Sun Jul 25 11:13:56 BST 2021)
(GPL source distribution)
Java Runtime: Java(TM) SE Runtime Environment
JVM: Java HotSpot(TM) 64-Bit Server VM
Default Encoding: UTF-8
Language: en
Country: GB
--></g></svg>